<svg width="501" height="501" viewBox="0 0 501 501" fill="none" xmlns="http://www.w3.org/2000/svg">
<g clip-path="url(#clip0_532_1993)">
<path d="M232.262 77.6016L308.677 190.265L391.95 109.931L232.262 77.6016Z" fill="#DC9F41" stroke="black" stroke-width="3.91872"/>
<path d="M495.784 492L309.645 192.219L435.044 250.02L495.784 492Z" fill="#DC9F41" stroke="black" stroke-width="3.91872"/>
<path d="M308.665 192.219L3.00391 491.021H494.805L308.665 192.219Z" fill="#EEAF45" stroke="black" stroke-width="3.91872"/>
<line x1="194.049" y1="303.902" x2="194.049" y2="490.041" stroke="black" stroke-width="3.91872" stroke-dasharray="7.84 7.84"/>
<path d="M309.645 192.227L392.918 110.914L497.744 123.65L434.064 250.028L309.645 192.227Z" fill="#EEAF46" stroke="black" stroke-width="3.91872"/>
<path d="M493.829 10L392.922 110.907L497.748 124.622L493.829 10Z" fill="#DC9F41" stroke="black" stroke-width="3.91872"/>
<path d="M295.708 456.286L293.442 458.07L295.708 456.286ZM303.77 466.528L299.016 433.566L272.847 454.165L303.77 466.528ZM63.2215 468.108C116.358 386.951 233.443 381.846 293.442 458.07L297.975 454.502C235.537 375.18 113.692 380.492 58.3957 464.948L63.2215 468.108Z" fill="black"/>
<path d="M497.739 124.633L435.039 249.052L497.739 490.053V124.633Z" fill="#DC9F41" stroke="black" stroke-width="3.91872"/>
</g>
<defs>
<clipPath id="clip0_532_1993">
<rect width="501" height="501" fill="white"/>
</clipPath>
</defs>
</svg>
