<svg width="338" height="370" viewBox="0 0 338 370" fill="none" xmlns="http://www.w3.org/2000/svg">
<path d="M280.292 247.446C276.084 260.662 271.683 273.403 266.39 285.806C261.669 296.87 253.441 305.522 245.721 314.421C231.881 330.374 218.671 346.926 202.373 360.61C195.97 365.986 188.622 368.627 180.59 369.71C171.498 370.937 166.074 364.981 161.084 358.86C158.826 356.091 156.625 353.558 153.38 351.979C148.684 349.695 144.619 346.472 141.024 342.749C138.721 340.364 136.188 339.693 132.989 339.799C117.427 340.313 102.048 339.331 87.1735 334.072C80.2713 331.632 75.4944 327.191 72.9653 320.374C69.6388 311.408 68.034 302.057 67.2744 292.575C66.5809 283.918 65.3161 282.954 57.2391 285.527C54.6416 286.355 52.1203 287.701 49.5903 284.608C48.0535 282.73 45.1646 283.771 42.9095 284.15C40.6589 284.528 38.0742 285.087 37.6447 282.203C37.1625 278.964 40.1098 278.654 42.4319 278.595C60.0454 278.143 77.5818 276.826 95.0175 274.242C98.1389 273.779 101.275 273.411 104.409 273.039C108.089 272.602 109.936 270.984 108.513 267.039C107.79 265.035 108.138 262.705 106.423 260.5C94.0011 262.389 81.6059 258.771 68.9865 258.786C56.0653 258.802 48.5648 248.56 51.3855 235.881C54.1153 223.61 60.7316 215.286 72.468 210.044C81.3161 206.092 90.253 201.73 97.0675 194.192C103.117 187.5 106.678 180.428 104.121 171.105C100.053 156.268 100.759 141.473 105.478 126.881C106.27 124.431 105.658 122.25 105.036 120.045C103.881 115.948 103.731 111.806 104.329 107.661C104.862 103.976 105.87 100.459 109.788 98.7298C111.979 97.7627 112.564 95.7895 111.972 93.702C108.416 81.1726 100.604 71.3786 91.3624 62.6501C88.4728 59.9207 84.4402 59.6215 80.5121 59.7552C66.5472 60.2306 52.8512 59.2444 40.5141 51.7223C38.4671 50.4741 36.6643 51.6825 34.75 51.6915C34.955 45.239 36.7899 43.9961 41.9593 47.0358C52.6783 53.3389 64.3776 55.0051 76.5201 54.5316C85.4767 54.1822 93.271 56.2529 99.1489 63.6522C104.411 70.2764 110.165 76.5124 114.873 84.0193C117.899 74.9636 120.836 66.1793 123.77 57.3943C124.153 56.2473 124.307 55.0324 123.626 54.0066C120.949 49.9735 123.125 47.1614 125.871 44.4105C129.401 40.8735 132.449 36.923 133.833 32.0838C135.764 25.3311 139.551 19.765 143.995 14.5101C151.107 6.10272 160.138 3.96017 170.997 3.68121C186.067 3.29409 199.568 9.57187 214.029 11.3164C218.672 11.8766 220.713 14.6055 220.107 19.2812C219.985 20.2181 219.976 21.1696 219.878 22.6803C224.193 21.0394 226.585 17.7058 229.812 15.5961C232.038 14.1412 234.04 10.7199 237.061 12.9372C239.979 15.0786 238.593 18.3523 237.478 21.2082C237.127 22.1086 236.543 23.005 237.358 24.8293C241.105 22.1143 244.701 19.4187 248.396 16.8654C250.489 15.4186 252.572 12.7091 255.42 14.7668C258.51 17.0001 257.055 20.0833 256.116 22.9742C255.122 26.0305 252.972 28.878 254.093 32.9051C260.803 29.8268 267.462 27.3196 272.742 22.3024C275.042 20.1176 276.914 17.9781 279.824 22.0441C281.735 24.7141 288.904 24.6467 291.865 22.7316C294.237 21.1978 296.527 19.5782 299.237 18.5754C305.933 16.0978 311.33 17.3369 315.987 22.9662C320.791 28.7725 324.219 35.4492 327.7 42.0918C328.968 44.5133 327.75 46.0096 326.152 47.2251C322.602 49.9241 323.003 52.5463 325.144 56.1075C328.82 62.2212 331.986 68.6492 335.186 75.0356C336.138 76.9357 336.754 79.0999 337.055 81.21C337.609 85.107 335.894 86.5229 332.13 85.4343C329.098 84.5572 326.039 83.6752 323.142 82.4428C315.497 79.1905 313.156 75.3321 313.399 66.8987C313.462 64.7248 313.117 62.6705 312.053 60.0867C305.518 64.7859 304.629 71.7658 303.025 78.1662C302.268 81.1875 300.862 85.4391 303.798 87.5457C307.347 90.0929 312.088 89.7303 316.387 88.787C317.544 88.5332 318.487 87.244 319.496 86.3919C320.722 85.3568 321.927 85.4747 323.113 86.4053C324.492 87.4869 324.869 88.8835 323.904 90.3611C322.191 92.9853 319.975 94.6345 316.571 94.7947C302.066 95.4771 301.097 96.6234 302.688 110.854C303.035 113.958 303.817 117.013 304.605 121.186C308.532 116.626 311.797 112.807 315.098 109.019C316.132 107.833 316.975 105.743 318.996 106.882C321.294 108.177 320.041 109.978 319.088 111.584C318.749 112.156 318.606 112.943 318.128 113.319C304.304 124.177 307.865 140.458 305.992 154.66C304.373 166.936 305.178 179.621 305.807 192.081C306.464 205.113 301.197 215.604 293.784 225.523C288.704 232.32 283.332 238.937 280.292 247.446ZM241.621 44.582C239.196 44.3625 237.98 42.4875 236.631 40.8551C234.915 38.7798 232.939 38.0286 230.588 39.6331C227.195 41.9486 223.333 43.5711 219.666 46.6948C215.12 48.6809 210.735 51.3069 205.99 52.497C199.521 54.1194 196.825 57.9657 196.353 64.7195C204.992 58.9574 212.849 52.9692 221.083 46.6401C226.06 47.7369 223.343 52.566 225.163 55.4597C226.059 55.1466 226.909 55.0262 227.552 54.5965C232.526 51.2751 237.46 47.8939 242.994 44.2133C244.507 43.139 246.661 42.8538 247.493 40.5057C245.57 39.6785 243.894 38.4149 241.74 39.1266C241.24 41.1757 243.648 42.5848 241.621 44.582ZM187.033 152.133C184.41 146.307 180.577 141.296 176.633 136.32C172.299 130.852 172.413 128.959 176.443 123.585C183.592 114.049 194.248 109.293 204.03 103.361C205.258 102.616 206.947 102.03 208.059 103.697C209.007 105.116 208.552 106.538 207.59 107.859C204.838 111.634 203.721 115.338 203.976 119.45C203.988 119.633 203.5 119.848 202.994 120.246C200.019 118.983 198.838 115.985 197.262 113.274C190.785 116.405 185.506 120.532 180.871 125.657C178.673 128.088 178.424 130.21 180.245 132.726C185.426 139.886 190.028 147.403 194.257 155.159C195.206 156.899 196.355 158.591 199.03 157.749C193.96 153.591 194.083 151.222 199.094 147.111C201.362 145.25 204.425 144.412 206.162 141.751C204.549 139.567 202.225 138.595 200.086 137.356C198.624 136.509 196.946 135.575 198.101 133.504C199.259 131.427 201.149 131.653 202.862 132.705C204.844 133.921 206.737 135.299 208.575 136.727C215.557 142.152 223.217 142.623 231.26 139.781C236.826 137.815 241.649 134.529 246.133 130.743C253.641 124.405 261.087 117.993 268.642 111.713C270.998 109.755 273.625 108.124 277.275 105.527C264.88 103.708 254.287 100.078 243.103 99.5826C239.683 99.4312 236.357 100.226 233.713 102.407C229.097 106.216 224.265 109.939 221.046 115.064C218.267 119.488 214.841 124.182 219.943 129.39C220.407 129.863 220.237 130.643 219.585 131.109C214.168 128.867 212.545 125.67 213.876 120.3C214.858 116.337 216.727 112.863 219.124 109.614C227.334 98.4875 237.331 91.5839 252.002 95.5404C259.871 97.6626 267.897 98.9659 275.966 100.037C278.979 100.437 282.107 100.872 284.417 98.3519C288.236 94.1845 291.681 89.6801 296.413 86.4052C297.863 85.4019 297.901 83.5343 298.023 81.8395C298.165 79.8572 298.329 77.8643 298.679 75.911C300.104 67.9481 302.879 60.6074 309.502 54.9741C304.73 50.6493 299.339 51.3404 294.387 50.9779C287.864 50.5003 281.294 50.0719 275.501 46.9608C271.768 44.9561 268.711 44.8752 265.372 47.1835C262.306 49.3028 259.135 49.0383 256.741 46.4681C253.653 43.1531 251.226 44.2803 248.171 46.4229C241.365 51.1966 234.836 56.4265 227.328 60.1163C225.173 61.1753 223.028 63.1593 220.37 61.9037C217.651 60.6197 218.758 57.5898 218.163 55.0322C208.663 60.4758 201.202 68.0868 191.969 73.1079C191.313 73.4647 190.899 74.3513 190.491 75.0599C189.678 76.4715 189.108 78.605 186.97 77.6021C185.003 76.6798 186.036 74.8494 186.397 73.2115C187.718 67.2263 190.813 61.84 192.653 55.8462C189.267 54.4253 186.531 52.7728 184.993 49.8637C180.449 41.2669 172.573 37.9938 163.604 36.0394C162.572 38.2426 162.899 40.4518 162.57 42.5538C160.191 57.7691 152.306 66.2346 136.059 60.3134C135.12 59.9714 134.148 59.7216 133.215 59.3665C130.32 58.2648 128.489 59.0432 127.505 62.1297C125.281 69.1035 123.113 76.1074 120.532 82.9519C117.14 91.9482 117.193 101.71 113.83 110.731C110.872 118.663 110.741 126.857 112.516 135.263C114.899 146.545 115.894 158.049 113.527 169.463C112.111 176.289 110.19 182.899 110.758 190.061C111.74 202.442 112.133 214.871 114.109 227.367C115.018 227.26 115.662 227.219 116.293 227.102C118.262 226.735 120.407 224.36 122.159 226.808C123.881 229.213 123.155 231.928 121.425 234.241C120.033 236.102 119.612 238.712 117.543 239.986C112.307 243.209 113.194 248.276 112.885 253.416C114.62 253.242 115.953 253.258 117.209 252.958C129.131 250.108 140.989 248.471 153.173 252.022C157.161 253.184 161.02 254.753 165.056 255.706C167.585 256.303 170.286 257.844 172.772 256.16C180.664 250.815 185.484 243.476 187.202 232.902C181.86 236.043 177.443 238.618 173.048 241.23C169.061 243.6 164.762 244.244 160.631 242.24C158.139 241.031 155.96 241.241 153.448 241.441C149.636 241.745 145.644 242.714 141.744 240.509C143.511 238.079 145.792 238.407 147.857 238.152C151.039 237.759 154.655 237.287 156.132 234.357C159.709 227.256 166.041 224.359 172.9 221.955C175.337 221.101 177.981 219.216 179.857 222.671C181.51 225.713 179.496 227.846 177.399 229.512C173.754 232.409 169.886 235.023 166.111 237.756C173.542 236.227 179.647 232.386 184.978 227.283C186.606 225.725 187.545 223.975 185.348 221.732C182.657 218.984 183.632 216.781 187.287 216.218C189.918 215.812 190.968 214.617 191.273 212.054C192.037 205.64 192.914 199.236 193.938 192.859C195.274 184.535 194.39 176.299 193.29 168.057C192.806 164.43 191.238 162.387 187.173 161.437C181.008 159.996 177.327 155.164 173.894 149.102C180.404 149.873 182.893 156.14 188.392 156.771C188.942 154.922 187.799 153.947 187.033 152.133ZM188.612 298.365C182.157 299.137 178.724 303.461 176.562 308.99C175.358 312.071 174.411 315.316 173.85 318.573C172.53 326.246 168.072 331.082 160.977 333.743C156.052 335.59 151.101 337.37 146.208 339.163C146.631 341.49 148.158 342.413 149.526 343.19C156.549 347.181 162.404 352.394 167.658 358.556C172.223 363.911 178.202 365.184 185.336 363.469C194.954 361.156 201.884 355.09 208.573 348.589C221.359 336.161 232.605 322.325 244.394 308.979C255.712 296.168 264.026 281.993 269.291 265.666C272.132 256.855 274.308 247.702 278.647 239.406C282.131 232.745 286.616 226.728 291.192 220.783C296.239 214.226 300.768 207.108 300.928 198.734C301.178 185.616 300.331 172.478 299.918 159.349C299.91 159.093 299.537 158.848 299.12 158.334C294.574 159.171 289.91 160.126 285.011 159.306C266.574 156.219 248.104 154.782 229.433 157.75C218.952 159.417 208.517 161.201 198.422 163.169C197.568 164.752 198.029 165.87 198.109 167.017C198.619 174.312 200.221 181.583 199.337 188.913C197.754 202.04 196.571 215.223 193.604 228.163C191.482 237.423 190.16 247.084 182.976 254.068C175.243 261.587 175.613 265.244 163.153 260.405C147.858 254.465 132.16 253.835 116.257 258.444C113.063 259.37 111.903 260.847 112.914 263.679C113.813 266.194 112.972 269.027 114.574 271.519C123.073 271.678 131.451 270 139.95 270.129C146.661 270.23 151.679 272.41 154.227 278.804C155.592 282.229 157.999 282.945 161.345 282.745C173.678 282.01 185.518 278.664 197.574 276.425C207.749 274.535 217.338 267.329 228.528 272.234C230.023 272.889 231.883 272.669 232.315 274.718C232.806 277.05 231.265 278.076 229.399 278.653C227.599 279.209 225.577 279.833 224.849 281.486C222.932 285.835 218.945 287.162 215.134 288.679C206.635 292.065 198.229 295.725 188.612 298.365ZM93.4962 330.876C106.245 334.078 119.117 335.899 133.118 334.911C126.298 319.687 119.822 305.23 113.25 290.558C109.343 291.742 105.982 292.63 102.723 293.803C101.116 294.381 99.7744 294.602 98.777 293.061C97.6102 291.259 98.5473 289.895 100.018 288.812C101.391 287.802 102.95 287.248 104.672 287.216C106.737 287.177 108.55 286.313 110.356 285.454C112.904 284.242 112.039 282.148 111.562 280.256C111.152 278.635 110.668 276.881 108.368 277.185C96.6668 278.735 84.9673 280.293 73.2701 281.869C71.06 282.167 70.811 283.555 71.131 285.515C72.5249 294.053 73.5867 302.65 75.1877 311.147C77.0585 321.077 82.2201 328.337 93.4962 330.876ZM63.478 222.157C59.2747 225.32 58.5823 230.345 56.9901 234.808C53.146 245.583 57.219 252.615 68.7021 253.764C79.5836 254.853 90.5765 255.066 101.525 255.163C108.238 255.223 109.28 253.063 106.436 246.554C105.25 246.554 103.934 246.608 102.625 246.542C100.308 246.425 98.3718 245.713 97.7361 243.134C97.1269 240.663 98.808 239.448 100.456 238.311C101.956 237.276 103.501 236.214 105.178 235.549C108.304 234.309 109.389 232.153 109.067 228.915C108.624 224.457 108.412 219.976 108.007 215.513C107.324 207.983 106.568 200.461 105.743 191.895C98.7639 200.549 90.8731 206.397 81.7848 210.792C75.5253 213.819 69.2548 216.946 63.478 222.157ZM163.534 327.209C165.249 326.082 166.6 324.671 167.185 322.634C169.138 315.834 171.103 309.037 173.196 301.78C170.417 301.78 168.058 302.089 165.818 301.704C162.827 301.19 158.94 302.146 157.196 298.906C154.146 293.241 150.498 288.14 146.256 283.3C144.522 281.322 143.375 280.552 140.95 281.289C134.744 283.175 128.539 285.028 122.443 287.281C119.38 288.414 118.484 289.833 119.763 292.787C125.176 305.296 130.541 317.826 135.954 330.335C137.217 333.255 139.392 334.613 142.692 334.28C149.94 333.547 156.466 330.725 163.534 327.209ZM192.612 51.0047C198.283 51.9577 203.081 49.1349 207.821 46.9557C215.25 43.5399 222.98 40.3992 229.164 34.1979C226.237 31.477 223.82 28.6891 219.845 29.8637C212.666 31.9847 212.704 32.0926 212.507 24.9073C212.501 24.6895 212.043 24.484 211.582 24.0898C207.921 25.7323 205.836 29.3385 202.762 31.7491C201.262 32.9255 200.226 35.1968 197.801 34.3285C195.049 33.3429 196.759 30.7312 196.278 27.6418C194.432 29.8364 193.298 31.2603 192.081 32.6087C191.042 33.7591 189.844 34.7879 188.189 33.7625C186.3 32.5927 186.764 31.0131 187.602 29.4141C189.745 25.3252 191.877 21.2304 194.128 16.9199C190.054 15.5179 185.884 14.7516 182.181 16.0546C168.395 20.9057 154.524 25.5338 143.78 36.4789C140.368 39.9555 137.614 43.9883 133.817 47.2103C129.422 50.9389 130.596 54.0375 136.313 55.91C138.045 56.4772 139.834 56.9031 141.626 57.245C148.993 58.6505 151.594 57.2546 155.193 50.5123C157.893 45.4556 158.123 40.0216 158.159 34.5069C158.175 31.9583 158.982 29.0169 161.962 30.1241C171.191 33.5519 181.369 35.6595 186.897 45.2941C188.139 47.4582 189.587 49.5224 192.612 51.0047ZM256.091 128.729C254.308 130.319 252.525 131.909 250.742 133.499C263.229 129.126 274.78 130.838 286.189 136.483C293.546 140.123 299.729 136.87 299.748 128.548C299.767 119.744 298.816 110.805 296.295 101.555C281.12 108.187 268.066 117.011 256.091 128.729ZM289.637 143.223C287.521 142.245 285.37 141.333 283.294 140.277C271.923 134.492 260.635 134.476 249.346 140.548C240.728 145.183 232.009 149.623 222.961 153.551C237.976 151.511 252.963 150.084 268.057 152.224C274.637 153.157 281.227 154.022 287.823 154.828C291.738 155.306 295.541 154.762 298.691 152.234C300.572 150.725 301.896 148.61 300.501 146.101C299.317 143.974 297.773 142.437 294.825 143.539C293.535 144.022 291.885 143.543 289.637 143.223ZM307.763 22.3415C305.438 21.3379 303.217 21.7737 301.032 22.8146C293.347 26.4761 287.505 32.5841 279.66 37.9372C284.965 37.9372 288.972 38.4307 292.811 37.8378C301.681 36.4682 309.247 38.5294 315.631 44.8903C316.741 45.9968 317.832 47.7717 319.791 46.3512C321.505 45.1083 322.778 43.5073 321.472 41.2641C317.654 34.7074 314.906 27.3885 307.763 22.3415ZM208.647 278.562C191.85 282.218 175.307 287.113 157.958 288.278C158.458 292.929 160.298 296.361 164.414 296.658C171.479 297.169 178.516 297.149 184.949 292.789C190.831 288.802 197.092 285.354 203.755 282.636C208.437 280.727 212.899 278.24 217.542 276.117C214.842 276.87 212.141 277.623 208.647 278.562ZM170.266 8.05349C155.157 7.4581 142.493 17.9851 139.269 33.752C141.046 32.1683 142.401 30.7459 143.961 29.6027C159.679 18.0831 175.748 7.58627 197.46 12.3438C188.499 9.2294 179.919 7.85617 170.266 8.05349ZM319.575 73.7056C322.331 77.3148 326.026 78.7801 330.643 79.1628C328.838 71.1429 322.528 59.3224 317.599 55.1989C318.267 61.6371 317.167 67.4211 319.575 73.7056ZM308.349 48.5287C310.043 49.1057 311.524 50.5673 313.855 50.1556C307.183 42.0526 293.396 39.5429 281.41 43.8862C289.761 47.358 299.086 45.4268 308.349 48.5287ZM128.439 275.279C124.583 276.105 120.435 275.164 116.463 277.254C117.213 279.538 115.44 283.808 120.453 282.495C127.458 280.66 134.31 278.244 142.556 275.66C137.176 274.599 133.252 274.754 128.439 275.279ZM204.452 152.315C211.244 152.521 217.244 149.845 224.546 146.9C220.034 146.814 216.843 146.459 213.796 145.267C210.307 143.903 202.858 147.104 201.663 150.523C200.983 152.469 202.701 152.074 204.452 152.315ZM106.693 160.563C107.163 162.678 107.632 164.793 108.102 166.908C109.055 157.994 110.152 149.248 107.799 139.961C105.149 146.923 105.633 153.306 106.693 160.563ZM246.453 32.3471C251.173 30.1638 249.297 25.4031 251.584 20.904C246.965 23.5005 243.682 25.5211 241.306 28.7653C242.532 30.5755 244.393 31.0793 246.453 32.3471ZM272.203 34.4303C271.903 32.5597 271.144 31.1998 268.961 32.116C267.63 32.6745 266.013 33.3162 265.881 34.9665C265.735 36.7709 267.389 37.5235 268.772 37.7709C270.684 38.1128 272.389 37.5699 272.203 34.4303ZM227.822 23.3185C227.164 24.1292 225.512 24.6235 226.572 26.0357C227.245 26.9319 228.581 27.8682 229.582 27.28C232.143 25.7751 232.046 23.08 232.348 19.7967C230.602 21.1468 229.454 22.0348 227.822 23.3185ZM211.011 17.293C210.539 14.9055 209.581 14.5792 205.148 15.3652C206.713 16.8496 208.048 18.586 211.011 17.293Z" fill="black"/>
<path d="M98.0527 130.925C93.1821 138.8 87.1809 144.604 77.7099 144.757C67.6711 144.919 60.7276 139.584 56.1884 131.042C54.8024 128.434 53.1028 126.958 50.3208 126.251C38.9268 123.357 30.2433 116.777 22.6243 107.782C16.5569 100.618 8.59399 95.0943 2.4942 87.798C1.39772 86.4865 -1.07546 85.2652 0.523237 83.3402C2.36738 81.1197 4.15523 83.4023 5.58526 84.5535C8.01762 86.5117 10.2456 88.7239 12.7206 90.9759C14.899 88.5656 16.6097 85.8356 20.1734 86.6141C20.3463 86.9716 20.6757 87.3327 20.597 87.5358C17.6122 95.243 20.587 100.215 29.482 102.031C32.4092 102.628 35.4168 102.864 38.3988 103.15C40.5832 103.359 42.376 103.358 43.5072 100.545C44.5486 97.956 47.3731 97.8895 48.231 100.679C49.2765 104.078 51.3992 103.868 53.9791 103.906C65.8985 104.083 76.2002 108.398 85.0574 116.408C87.6769 114.824 88.2339 112.777 86.5564 110.206C94.4267 108.319 96.9289 98.5902 105.409 97.4761C106.709 100.362 104.772 101.894 103.401 103.288C101.55 105.17 99.2966 106.658 97.2126 108.311C94.74 110.272 93.7875 111.833 96.9156 114.536C102.325 119.211 100.672 124.988 98.0527 130.925ZM78.5637 140.184C83.0577 139.74 86.8295 137.674 90.0546 134.687C95.6714 129.484 96.0051 121.551 90.5892 117.482C83.6941 128.18 72.7865 129.501 61.1188 128.815C63.5128 135.779 69.6827 139.768 78.5637 140.184ZM77.2549 119.806C73.5881 112.482 62.5122 107.689 53.2152 109.562C53.4327 113.588 55.134 117.226 56.6731 120.816C58.308 124.628 62.3558 124.391 65.3547 123.951C69.4716 123.347 74.7394 125.834 77.2549 119.806ZM44.1752 119.102C46.3575 119.691 48.2576 121.324 51.2689 120.893C50.4415 118.428 49.8078 116.07 48.8565 113.847C48.0327 111.923 47.4997 109.185 45.0222 109.044C40.0166 108.76 35.0489 107.333 28.994 108.004C33.8467 112.649 37.8952 116.728 44.1752 119.102Z" fill="black"/>
<path d="M91.565 28.9017C94.9724 32.532 96.1793 29.7038 96.8365 27.1107C97.2212 25.5931 97.0461 24.029 98.9896 23.8197C100.881 23.616 101.994 25.1113 103.056 26.322C104.147 27.5668 104.223 29.2056 103.084 30.4417C100.367 33.3908 97.5035 36.3702 93.0806 36.2384C88.8951 36.1136 86.3708 33.7053 85.7455 29.6536C74.5515 29.7289 74.5515 29.7289 71.8382 15.8691C68.4412 16.9883 66.9119 20.0864 64.6527 22.2882C62.8747 24.021 61.3677 26.0584 59.4672 27.6301C58.1525 28.7172 56.6167 30.354 54.5948 29.2976C52.3951 28.1483 52.0497 25.9532 52.1766 23.6929C52.3677 20.2883 53.9228 16.8077 51.594 13.5515C45.7277 14.8004 39.8967 20.8841 40.1931 25.7101C38.1392 26.2458 35.5943 25.9769 34.4235 28.5657C33.804 29.9354 32.4099 30.4256 31.0525 29.5776C29.4088 28.5508 29.0519 26.9674 29.9604 25.2446C31.8173 21.7234 33.5568 18.1214 35.6803 14.765C37.7373 11.5137 39.7502 8.36824 40.4744 4.46236C40.893 2.20534 42.0159 -0.622115 44.9035 0.121202C47.5964 0.814409 46.4738 3.70839 46.4982 5.77226C46.5136 7.07695 45.1893 8.13573 45.7543 9.56713C56.0374 5.71135 56.9305 6.54808 58.1006 21.601C62.3909 18.3432 64.6941 13.5044 68.9597 10.7075C70.7127 9.558 72.0954 7.22383 74.5367 8.24455C77.1998 9.35805 77.5595 11.9871 77.603 14.5785C77.6338 16.4087 77.5732 18.244 77.6891 20.0684C77.9547 24.2473 79.9161 25.4966 83.5637 23.3893C86.1186 21.9131 88.2293 19.6826 90.6071 17.8795C91.9035 16.8963 93.4013 15.5145 95.0298 16.9886C96.6659 18.4696 95.6142 19.998 94.4857 21.3461C92.7369 23.4353 91.4447 25.7165 91.565 28.9017Z" fill="black"/>
</svg>
