<svg width="501" height="501" viewBox="0 0 501 501" fill="none" xmlns="http://www.w3.org/2000/svg">
<rect x="4.06994" y="250.727" width="348.02" height="348.02" transform="rotate(-45 4.06994 250.727)" fill="white" stroke="black" stroke-width="3.73388"/>
<line x1="1" y1="250.727" x2="499.317" y2="250.727" stroke="black" stroke-width="3.73388" stroke-dasharray="7.33 7.33"/>
<path d="M244.198 418.711L246.307 416.949L244.198 418.711ZM262.199 440.254L232.403 429.339L256.753 408.993L262.199 440.254ZM240.214 46.3631L236.751 77.9056L211.166 59.1348L240.214 46.3631ZM246.307 416.949L248.449 419.513L244.232 423.037L242.09 420.473L246.307 416.949ZM227.859 67.8458C156.281 174.489 162.709 316.902 246.307 416.949L242.09 420.473C156.914 318.538 150.366 173.44 223.295 64.7829L227.859 67.8458Z" fill="black"/>
</svg>
