<svg width="501" height="501" viewBox="0 0 501 501" fill="none" xmlns="http://www.w3.org/2000/svg">
<g clip-path="url(#clip0_532_1955)">
<path d="M127.766 499.049V2L374.003 252.049L127.766 499.049Z" fill="#F47C36" stroke="black" stroke-width="3.04938"/>
<line x1="127.445" y1="247.922" x2="249.421" y2="125.947" stroke="black" stroke-width="3.04938" stroke-dasharray="6.1 6.1"/>
<line x1="128.078" y1="249.445" x2="251.578" y2="372.945" stroke="black" stroke-width="3.04938" stroke-dasharray="6.1 6.1"/>
<line x1="128.523" y1="252.046" x2="370.949" y2="252.046" stroke="#FDA673" stroke-width="3.04938"/>
<path d="M221.757 222.24L219.617 221.564L221.757 222.24ZM220.767 225.374L239.883 207.875L215.171 200.07L220.767 225.374ZM132.451 142.318C183.42 120.706 236.291 168.773 219.617 221.564L223.897 222.916C241.725 166.472 185.195 115.078 130.699 138.185L132.451 142.318Z" fill="black"/>
<path d="M221.757 288.725L219.617 289.401L221.757 288.725ZM220.767 285.591L239.883 303.089L215.171 310.895L220.767 285.591ZM132.451 368.647C183.42 390.259 236.291 342.192 219.617 289.401L223.897 288.049C241.725 344.493 185.195 395.887 130.699 372.78L132.451 368.647Z" fill="black"/>
</g>
<defs>
<clipPath id="clip0_532_1955">
<rect width="501" height="501" fill="white"/>
</clipPath>
</defs>
</svg>
