<svg width="501" height="501" viewBox="0 0 501 501" fill="none" xmlns="http://www.w3.org/2000/svg">
<path d="M312.348 133.059L293.34 210.142L360.652 214.883L312.348 133.059Z" fill="#D76E30" stroke="black" stroke-width="2.28538"/>
<path d="M235.584 408.982L292.871 211.324L316.755 288.228L235.584 408.982Z" fill="#D76E30" stroke="black" stroke-width="2.28538"/>
<path d="M292.49 210.903L43.7108 195.032L235.628 408.178L292.49 210.903Z" fill="#F47C36" stroke="black" stroke-width="2.28538"/>
<path d="M292.868 211.329L360.605 215.688L395.992 266.089L316.37 287.808L292.868 211.329Z" fill="#F47C36" stroke="black" stroke-width="2.28538"/>
<path d="M443.725 220.046L360.615 215.69L395.577 266.473L443.725 220.046Z" fill="#D76E30" stroke="black" stroke-width="2.28538"/>
<path d="M413.27 148.189L412.607 149.735L412.607 149.735L413.27 148.189ZM406.283 145.194L425.569 142.897L417.916 160.747L406.283 145.194ZM441.702 280.939C479.399 238.756 464.602 172.028 412.607 149.735L413.933 146.643C468.041 169.843 483.44 239.283 444.211 283.18L441.702 280.939Z" fill="black"/>
<path d="M47.6747 268.071L48.6918 266.732L48.6918 266.732L47.6747 268.071ZM53.7289 272.668L34.4603 270.231L46.2049 254.763L53.7289 272.668ZM52.2018 132.387C5.41949 164.197 3.63436 232.522 48.6918 266.732L46.6576 269.411C-0.231436 233.811 1.62627 162.708 50.3103 129.605L52.2018 132.387Z" fill="black"/>
<path d="M395.565 266.471L317.175 287.849L237.193 409.07L395.565 266.471Z" fill="#D76E30" stroke="black" stroke-width="2.28538"/>
</svg>
