<svg width="129" height="130" viewBox="0 0 129 130" fill="none" xmlns="http://www.w3.org/2000/svg">
<path d="M16.0785 129.578C11.6569 129.578 7.87174 128.004 4.72305 124.855C1.57435 121.707 0 117.922 0 113.5L0.00145721 16.0785C0.00145721 11.6569 1.57581 7.87174 4.7245 4.72305C7.8732 1.57435 11.6583 0 16.0799 0H78.3225C79.6486 0 80.9204 0.526785 81.858 1.46447L127.164 46.7709C128.102 47.7086 128.629 48.9803 128.629 50.3064V113.5C128.629 117.922 127.055 121.707 123.906 124.855C120.757 128.004 116.972 129.578 112.55 129.578H16.0785ZM72.3543 56.2746V16.0785H16.0799V113.934H112.55V56.2746H72.3543Z" fill="#1C1B1F"/>
<path d="M10 14C10 11.2386 12.2386 9 15 9H74.3704C75.6945 9 76.9645 9.52521 77.9019 10.4604L117.531 49.9993C118.472 50.9373 119 52.2108 119 53.5389V116C119 118.761 116.761 121 114 121H15C12.2386 121 10 118.761 10 116V14Z" fill="white"/>
<path d="M77 8L99.5 30L120 51H77V8Z" fill="#1C1B1F"/>
</svg>
