<svg width="400" height="220" viewBox="0 0 400 220" fill="none" xmlns="http://www.w3.org/2000/svg">
<rect width="400" height="220" fill="#605CFF"/>
<path d="M23.6619 93.28C25.5819 93.28 27.4485 93.12 29.2619 92.8C31.0752 92.48 32.7019 91.9467 34.1419 91.2C35.6352 90.4533 36.8885 89.4933 37.9019 88.32C38.9685 87.1467 39.6619 85.7067 39.9819 84H47.4219V140H37.4219V100.48H23.6619V93.28ZM193.655 107.2C195.148 107.253 196.642 107.147 198.135 106.88C199.628 106.613 200.962 106.16 202.135 105.52C203.308 104.827 204.242 103.893 204.935 102.72C205.682 101.547 206.055 100.107 206.055 98.4C206.055 96 205.228 94.08 203.575 92.64C201.975 91.2 199.895 90.48 197.335 90.48C195.735 90.48 194.348 90.8 193.175 91.44C192.002 92.08 191.015 92.96 190.215 94.08C189.468 95.1467 188.908 96.3733 188.535 97.76C188.162 99.0933 188.002 100.48 188.055 101.92H178.935C179.042 99.2 179.548 96.6933 180.455 94.4C181.362 92.0533 182.588 90.0267 184.135 88.32C185.735 86.6133 187.655 85.28 189.895 84.32C192.135 83.36 194.668 82.88 197.495 82.88C199.682 82.88 201.815 83.2 203.895 83.84C206.028 84.48 207.922 85.4133 209.575 86.64C211.282 87.8667 212.642 89.44 213.655 91.36C214.668 93.2267 215.175 95.3867 215.175 97.84C215.175 100.667 214.535 103.147 213.255 105.28C211.975 107.36 209.975 108.88 207.255 109.84V110C210.455 110.64 212.935 112.24 214.695 114.8C216.508 117.307 217.415 120.373 217.415 124C217.415 126.667 216.882 129.067 215.815 131.2C214.748 133.28 213.308 135.067 211.495 136.56C209.682 138 207.575 139.12 205.175 139.92C202.775 140.72 200.242 141.12 197.575 141.12C194.322 141.12 191.468 140.667 189.015 139.76C186.615 138.8 184.588 137.467 182.935 135.76C181.335 134.053 180.108 132 179.255 129.6C178.402 127.2 177.948 124.533 177.895 121.6H187.015C186.908 125.013 187.735 127.867 189.495 130.16C191.308 132.4 194.002 133.52 197.575 133.52C200.615 133.52 203.148 132.667 205.175 130.96C207.255 129.2 208.295 126.72 208.295 123.52C208.295 121.333 207.868 119.6 207.015 118.32C206.162 117.04 205.042 116.08 203.655 115.44C202.268 114.747 200.695 114.32 198.935 114.16C197.228 114 195.468 113.947 193.655 114V107.2Z" fill="white"/>
<path d="M75.0339 129.2H86.1539V140C86.1006 143.307 85.0872 146.08 83.1139 148.32C81.1406 150.56 78.5539 152 75.3539 152.64V147.76C77.1139 147.333 78.4206 146.347 79.2739 144.8C80.1806 143.307 80.6072 141.707 80.5539 140H75.0339V129.2ZM138.778 140H100.538C100.592 135.36 101.712 131.307 103.898 127.84C106.085 124.373 109.072 121.36 112.858 118.8C114.672 117.467 116.565 116.187 118.538 114.96C120.512 113.68 122.325 112.32 123.978 110.88C125.632 109.44 126.992 107.893 128.058 106.24C129.125 104.533 129.685 102.587 129.738 100.4C129.738 99.3867 129.605 98.32 129.338 97.2C129.125 96.0267 128.672 94.96 127.978 94C127.285 92.9867 126.325 92.16 125.098 91.52C123.872 90.8267 122.272 90.48 120.298 90.48C118.485 90.48 116.965 90.8533 115.738 91.6C114.565 92.2933 113.605 93.28 112.858 94.56C112.165 95.7867 111.632 97.2533 111.258 98.96C110.938 100.667 110.752 102.507 110.698 104.48H101.578C101.578 101.387 101.978 98.5333 102.778 95.92C103.632 93.2533 104.885 90.96 106.538 89.04C108.192 87.12 110.192 85.6267 112.538 84.56C114.938 83.44 117.712 82.88 120.858 82.88C124.272 82.88 127.125 83.44 129.418 84.56C131.712 85.68 133.552 87.0933 134.938 88.8C136.378 90.5067 137.392 92.3733 137.978 94.4C138.565 96.3733 138.858 98.2667 138.858 100.08C138.858 102.32 138.512 104.347 137.818 106.16C137.125 107.973 136.192 109.653 135.018 111.2C133.845 112.693 132.512 114.08 131.018 115.36C129.525 116.64 127.978 117.84 126.378 118.96C124.778 120.08 123.178 121.147 121.578 122.16C119.978 123.173 118.485 124.187 117.098 125.2C115.765 126.213 114.592 127.28 113.578 128.4C112.565 129.467 111.872 130.613 111.498 131.84H138.778V140ZM153.03 129.2H164.15V140C164.097 143.307 163.084 146.08 161.11 148.32C159.137 150.56 156.55 152 153.35 152.64V147.76C155.11 147.333 156.417 146.347 157.27 144.8C158.177 143.307 158.604 141.707 158.55 140H153.03V129.2ZM231.027 129.2H242.147V140C242.094 143.307 241.08 146.08 239.107 148.32C237.134 150.56 234.547 152 231.347 152.64V147.76C233.107 147.333 234.414 146.347 235.267 144.8C236.174 143.307 236.6 141.707 236.547 140H231.027V129.2ZM262.371 119.52H279.331V94.88H279.171L262.371 119.52ZM295.171 126.72H287.971V140H279.331V126.72H255.331V117.68L279.331 84H287.971V119.52H295.171V126.72ZM309.023 129.2H320.143V140H309.023V129.2ZM336.928 129.2H348.048V140H336.928V129.2ZM364.833 129.2H375.953V140H364.833V129.2Z" fill="#A9A7FF"/>
</svg>
