<svg width="385" height="385" viewBox="0 0 385 385" fill="none" xmlns="http://www.w3.org/2000/svg">
<rect width="385" height="385" rx="192.5" fill="white"/>
<path d="M204.356 133.712C182.958 133.712 150.125 127.777 133.159 144.743C116.577 161.325 95.3048 186.701 90.4849 209.924C88.5703 219.149 87.6568 228.135 88.0337 237.556C88.3978 246.661 108.016 261.995 113.995 267.974C127.129 281.108 142.571 284.625 160.568 287.249C191.549 291.768 223.726 292.473 253.158 280.119C278.402 269.522 324.528 240.494 305.526 207.918C294.245 188.579 279.879 172.643 266.64 154.771C259.712 145.418 252.201 132.103 242.016 125.69C229.623 117.887 211.344 119.674 197.337 119.674C194.894 119.674 187.246 119.893 186.418 122.793C184.781 128.523 183.488 127.099 178.284 129.701" stroke="black" stroke-width="3" stroke-linecap="round"/>
<path d="M148.644 179.841C150.793 175.759 162.502 177.836 166.249 177.836C170.281 185.9 176.605 184.882 174.382 194.883C172.449 203.583 170.828 211.93 160.232 211.93C150.434 211.93 144.188 206.85 144.188 196.889C144.188 191.837 146.314 184.27 148.644 179.841Z" stroke="black" stroke-width="3" stroke-linecap="round"/>
<path d="M238.449 185.857C233.435 185.857 228.421 185.857 223.407 185.857C218.233 185.857 215.384 191.524 211.262 193.88C197.713 201.622 219.626 212.435 224.41 214.826C240.931 223.087 236.063 212.786 240.9 201.902C242.004 199.419 244.443 190.737 242.014 188.308C238.532 184.826 234.198 189.509 230.427 183.852" stroke="black" stroke-width="3" stroke-linecap="round"/>
<path d="M170.261 197.89C182.864 197.89 195.511 200.487 206.361 205.912" stroke="black" stroke-width="3" stroke-linecap="round"/>
<path d="M242.46 195.885C253.207 194.69 300.621 158.185 300.621 185.857" stroke="black" stroke-width="3" stroke-linecap="round"/>
<path d="M142.184 191.874C130.697 191.269 116.077 187.124 106.306 180.843C101.903 178.013 97.572 172.469 92.0445 171.818C83.4346 170.805 76 176.446 76 185.857" stroke="black" stroke-width="3" stroke-linecap="round"/>
<path d="M144.188 227.974C144.188 235.662 144.188 243.35 144.188 251.038C144.188 261.832 161.502 264.802 169.146 266.191C187.872 269.596 215.167 267.737 222.404 246.024" stroke="black" stroke-width="3" stroke-linecap="round"/>
<path d="M134.162 161.79C135.602 148.827 167.004 153.768 176.279 153.768" stroke="black" stroke-width="3" stroke-linecap="round"/>
<path d="M230.428 153.769C247.177 153.769 250.489 165.813 256.5 177.836" stroke="black" stroke-width="3" stroke-linecap="round"/>
<path d="M159.41 194.352C159.41 192.942 160.292 187.766 160.292 191.706C160.292 194.431 157.646 195.635 157.646 192.588" stroke="black" stroke-width="3" stroke-linecap="round"/>
<path d="M227.326 198.762C227.326 199.753 225.613 204.892 224.729 201.8C223.895 198.881 227.326 197.537 227.326 200.085C227.326 202.707 224.521 203.23 224.68 200.526C224.749 199.352 226.444 199.324 226.444 200.526C226.444 202.673 224.881 200.447 224.68 199.644" stroke="black" stroke-width="3" stroke-linecap="round"/>
<path d="M270.865 142.828C265.815 159.344 247.945 143.895 222.458 136.103C196.97 128.311 173.517 131.126 178.566 114.61C183.616 98.0938 208.371 91.0219 233.858 98.8143C259.346 106.607 275.914 126.312 270.865 142.828Z" fill="#5B7FFF"/>
<ellipse cx="191.508" cy="129.061" rx="73.738" ry="9.26551" transform="rotate(17 191.508 129.061)" fill="#D9D9D9"/>
<path d="M221.852 103.623C221.852 106.38 220.793 109.076 219.866 111.652C219.384 112.991 218.868 114.26 218.582 115.659C218.448 116.314 218.127 116.955 218.034 117.605C217.99 117.916 217.836 118.148 217.764 118.455C217.735 118.581 217.649 119.185 217.552 119.109C217.483 119.056 217.223 119.077 217.233 119.077C217.456 119.077 217.695 119.05 217.911 119.109C218.798 119.354 219.71 119.476 220.601 119.747C221.512 120.024 222.404 120.332 223.324 120.581C224.04 120.775 224.929 120.891 225.597 121.203C226.283 121.522 227.422 121.978 228.181 122.02C228.999 122.066 229.856 122.756 230.683 122.756" stroke="white" stroke-width="3" stroke-linecap="round"/>
<path d="M227.153 125.847C227.198 125.037 228.252 124.257 228.83 123.787C229.409 123.314 229.887 122.743 230.506 122.315C231.767 121.442 232.988 120.307 234.071 119.224C235.4 117.894 236.509 116.341 237.881 115.046C238.386 114.569 239.075 112.642 239.075 113.337C239.075 114.625 238.804 115.871 238.78 117.164C238.738 119.505 238.633 121.863 238.633 124.22C238.633 126.217 239.153 128.228 239.508 130.181C239.593 130.65 239.899 131.323 240.105 131.734" stroke="white" stroke-width="3" stroke-linecap="round"/>
<path d="M231.271 121.726C232.995 121.726 234.463 122.049 236.127 122.429C236.786 122.58 237.523 122.904 238.188 122.904" stroke="white" stroke-width="3" stroke-linecap="round"/>
<path d="M185.689 221.32C185.689 223.508 185.689 225.696 185.689 227.884C185.689 229.156 185.576 230.576 184.62 231.531C183.209 232.943 181.355 234.265 179.541 235.1C178.056 235.784 176.191 235.896 174.787 236.676C173.634 237.317 173.497 238.345 173.497 239.516C173.497 241.857 174.313 243.487 176.701 244.061C182.066 245.351 188.054 243.785 190.612 238.669" stroke="black" stroke-width="3" stroke-linecap="round"/>
</svg>
